<svg xmlns="http://www.w3.org/2000/svg" width="120" height="120" viewBox="0 0 120 120">
  <!-- 背景 -->
  <rect width="120" height="120" rx="24" fill="#1565C0"/>

  <!-- 九瓣花 -->
  <g transform="translate(60, 60)">
    <!-- 花瓣1: 0度 -->
    <g transform="rotate(0)">
      <path d="M0,-14Q-5,-22 -4,-36Q0,-44 4,-36Q5,-22 0,-14Z" fill="#FFFFFF"/>
    </g>
    <!-- 花瓣2: 40度 -->
    <g transform="rotate(40)">
      <path d="M0,-14Q-5,-22 -4,-36Q0,-44 4,-36Q5,-22 0,-14Z" fill="#FFFFFF"/>
    </g>
    <!-- 花瓣3: 80度 -->
    <g transform="rotate(80)">
      <path d="M0,-14Q-5,-22 -4,-36Q0,-44 4,-36Q5,-22 0,-14Z" fill="#FFFFFF"/>
    </g>
    <!-- 花瓣4: 120度 -->
    <g transform="rotate(120)">
      <path d="M0,-14Q-5,-22 -4,-36Q0,-44 4,-36Q5,-22 0,-14Z" fill="#FFFFFF"/>
    </g>
    <!-- 花瓣5: 160度 -->
    <g transform="rotate(160)">
      <path d="M0,-14Q-5,-22 -4,-36Q0,-44 4,-36Q5,-22 0,-14Z" fill="#FFFFFF"/>
    </g>
    <!-- 花瓣6: 200度 -->
    <g transform="rotate(200)">
      <path d="M0,-14Q-5,-22 -4,-36Q0,-44 4,-36Q5,-22 0,-14Z" fill="#FFFFFF"/>
    </g>
    <!-- 花瓣7: 240度 -->
    <g transform="rotate(240)">
      <path d="M0,-14Q-5,-22 -4,-36Q0,-44 4,-36Q5,-22 0,-14Z" fill="#FFFFFF"/>
    </g>
    <!-- 花瓣8: 280度 -->
    <g transform="rotate(280)">
      <path d="M0,-14Q-5,-22 -4,-36Q0,-44 4,-36Q5,-22 0,-14Z" fill="#FFFFFF"/>
    </g>
    <!-- 花瓣9: 320度 -->
    <g transform="rotate(320)">
      <path d="M0,-14Q-5,-22 -4,-36Q0,-44 4,-36Q5,-22 0,-14Z" fill="#FFFFFF"/>
    </g>
    <!-- 中心圆 -->
    <circle r="9" fill="#FFFFFF"/>
  </g>
</svg>